<svg xmlns="http://www.w3.org/2000/svg" viewBox="0 0 500 500"><g id="freepik--background-complete--inject-33"><rect y="382.4" width="500" height="0.25" style="fill:#e0e0e0"></rect><rect x="107.71" y="393.89" width="13.2" height="0.25" style="fill:#e0e0e0"></rect><rect x="80.36" y="394.01" width="20.02" height="0.25" style="fill:#e0e0e0"></rect><rect x="167" y="392.33" width="51.99" height="0.25" style="fill:#e0e0e0"></rect><rect x="211.1" y="389.63" width="27.9" height="0.25" style="fill:#e0e0e0"></rect><rect x="335.33" y="397.54" width="65.1" height="0.25" style="fill:#e0e0e0"></rect><rect x="313.76" y="397.54" width="16.02" height="0.25" style="fill:#e0e0e0"></rect><rect x="390.04" y="391.5" width="28.63" height="0.25" style="fill:#e0e0e0"></rect><path d="M237,337.8H43.91a5.71,5.71,0,0,1-5.7-5.71V60.66A5.71,5.71,0,0,1,43.91,55H237a5.71,5.71,0,0,1,5.71,5.71V332.09A5.71,5.71,0,0,1,237,337.8ZM43.91,55.2a5.46,5.46,0,0,0-5.45,5.46V332.09a5.46,5.46,0,0,0,5.45,5.46H237a5.47,5.47,0,0,0,5.46-5.46V60.66A5.47,5.47,0,0,0,237,55.2Z" style="fill:#e0e0e0"></path><path d="M453.31,337.8H260.21a5.72,5.72,0,0,1-5.71-5.71V60.66A5.72,5.72,0,0,1,260.21,55h193.1A5.71,5.71,0,0,1,459,60.66V332.09A5.71,5.71,0,0,1,453.31,337.8ZM260.21,55.2a5.47,5.47,0,0,0-5.46,5.46V332.09a5.47,5.47,0,0,0,5.46,5.46h193.1a5.47,5.47,0,0,0,5.46-5.46V60.66a5.47,5.47,0,0,0-5.46-5.46Z" style="fill:#e0e0e0"></path><rect x="62.87" y="277.34" width="27.5" height="105.06" transform="translate(153.23 659.74) rotate(180)" style="fill:#e0e0e0"></rect><polygon points="68.09 382.4 62.87 382.4 62.87 367.54 73.57 367.54 68.09 382.4" style="fill:#ebebeb"></polygon><rect x="219.79" y="277.34" width="27.5" height="105.06" transform="translate(467.08 659.74) rotate(180)" style="fill:#e0e0e0"></rect><rect x="62.87" y="277.34" width="161.48" height="95.94" transform="translate(287.21 650.62) rotate(180)" style="fill:#ebebeb"></rect><rect x="158.8" y="294.52" width="72.5" height="47.87" transform="translate(-123.41 513.5) rotate(-90)" style="fill:#e0e0e0"></rect><path d="M190.31,286.36h9.47a15,15,0,0,0,10.88-4.67H179.43A15,15,0,0,0,190.31,286.36Z" style="fill:#ebebeb"></path><rect x="107.36" y="294.52" width="72.5" height="47.87" transform="translate(-174.85 462.06) rotate(-90)" style="fill:#e0e0e0"></rect><path d="M138.39,286.36h9.47a15,15,0,0,0,10.87-4.67H127.51A15,15,0,0,0,138.39,286.36Z" style="fill:#ebebeb"></path><rect x="55.92" y="294.52" width="72.5" height="47.87" transform="translate(-226.29 410.63) rotate(-90)" style="fill:#e0e0e0"></rect><path d="M87,286.36h9.47a15,15,0,0,0,10.88-4.67H76.07A15,15,0,0,0,87,286.36Z" style="fill:#ebebeb"></path><polygon points="219.13 382.4 224.35 382.4 224.35 367.54 213.65 367.54 219.13 382.4" style="fill:#ebebeb"></polygon><rect x="284.36" y="73.99" width="151.5" height="141.9" transform="translate(720.22 289.88) rotate(180)" style="fill:#e0e0e0"></rect><rect x="278.92" y="73.99" width="154.4" height="141.9" transform="translate(712.24 289.88) rotate(180)" style="fill:#ebebeb"></rect><rect x="284.36" y="215.89" width="151.5" height="10.11" transform="translate(720.22 441.88) rotate(180)" style="fill:#e0e0e0"></rect><rect x="269.85" y="215.89" width="154.4" height="10.11" transform="translate(694.11 441.88) rotate(180)" style="fill:#ebebeb"></rect><rect x="292.79" y="75.35" width="126.66" height="139.17" transform="translate(501.06 -211.18) rotate(90)" style="fill:#f5f5f5"></rect><polygon points="411.13 208.27 366.42 81.61 345.32 81.61 390.03 208.27 411.13 208.27" style="fill:#fafafa"></polygon><path d="M422.18,165.3a.55.55,0,0,1-.55-.55V86.56a.55.55,0,0,1,.55-.54.54.54,0,0,1,.54.54v78.19A.55.55,0,0,1,422.18,165.3Z" style="fill:#ebebeb"></path><polygon points="385.49 208.27 340.78 81.61 332.56 81.61 377.26 208.27 385.49 208.27" style="fill:#fafafa"></polygon><rect x="223.69" y="144.46" width="126.66" height="0.97" transform="translate(431.96 -142.08) rotate(90)" style="fill:#e0e0e0"></rect><polygon points="277.12 91.35 428.62 91.35 429.32 84.57 277.82 84.57 277.12 91.35" style="fill:#e0e0e0"></polygon><polygon points="277.12 96.32 428.62 96.32 429.32 89.53 277.82 89.53 277.12 96.32" style="fill:#e0e0e0"></polygon><polygon points="277.12 102.28 428.62 102.28 429.32 95.49 277.82 95.49 277.12 102.28" style="fill:#e0e0e0"></polygon><polygon points="277.12 108.91 428.62 108.91 429.32 102.13 277.82 102.13 277.12 108.91" style="fill:#e0e0e0"></polygon><polygon points="277.12 116.86 428.62 116.86 429.32 110.07 277.82 110.07 277.12 116.86" style="fill:#e0e0e0"></polygon><polygon points="277.12 125.79 428.62 125.79 429.32 119.01 277.82 119.01 277.12 125.79" style="fill:#e0e0e0"></polygon><rect x="275.49" y="288.19" width="44.84" height="94.2" transform="translate(595.83 670.59) rotate(180)" style="fill:#e0e0e0"></rect><polygon points="280 382.4 275.5 382.4 275.5 369.57 284.73 369.57 280 382.4" style="fill:#ebebeb"></polygon><rect x="385.79" y="288.19" width="44.84" height="94.2" transform="translate(816.43 670.59) rotate(180)" style="fill:#e0e0e0"></rect><rect x="275.49" y="288.19" width="114.23" height="86.33" transform="translate(665.22 662.72) rotate(180)" style="fill:#ebebeb"></rect><rect x="278.99" y="292.02" width="107.24" height="23.68" transform="translate(665.22 607.72) rotate(180)" style="fill:#e0e0e0"></rect><path d="M327.55,299.38h10.13c4.4,0,8.6-2.92,11.63-8.08h-33.4C318.94,296.46,323.15,299.38,327.55,299.38Z" style="fill:#ebebeb"></path><polygon points="385.22 382.4 389.73 382.4 389.73 369.57 380.49 369.57 385.22 382.4" style="fill:#ebebeb"></polygon><rect x="278.99" y="319.52" width="107.24" height="23.68" transform="translate(665.22 662.72) rotate(180)" style="fill:#e0e0e0"></rect><path d="M327.55,326.88h10.13c4.4,0,8.6-2.92,11.63-8.08h-33.4C318.94,324,323.15,326.88,327.55,326.88Z" style="fill:#ebebeb"></path><rect x="278.99" y="347.02" width="107.24" height="23.68" transform="translate(665.22 717.72) rotate(180)" style="fill:#e0e0e0"></rect><path d="M327.55,354.38h10.13c4.4,0,8.6-2.92,11.63-8.08h-33.4C318.94,351.46,323.15,354.38,327.55,354.38Z" style="fill:#ebebeb"></path><rect x="94.84" y="93.47" width="87.06" height="116.44" transform="translate(276.74 303.37) rotate(180)" style="fill:#e0e0e0"></rect><rect x="88.8" y="93.47" width="91.5" height="116.44" transform="translate(269.09 303.37) rotate(180)" style="fill:#ebebeb"></rect><rect x="83.99" y="113.6" width="101.11" height="76.17" transform="translate(286.23 17.14) rotate(90)" style="fill:#fafafa"></rect><path d="M135.78,171H116a.74.74,0,0,1-.74-.74V150.45a18.06,18.06,0,0,1,18-18h19.77a.74.74,0,0,1,.74.74v19.77A18.06,18.06,0,0,1,135.78,171Zm-19-1.47h19a16.58,16.58,0,0,0,16.56-16.57v-19h-19a16.59,16.59,0,0,0-16.57,16.56Z" style="fill:#ebebeb"></path><polygon points="214 230.67 139.11 230.67 128.25 274.9 203.14 274.9 214 230.67" style="fill:#e0e0e0"></polygon><polygon points="203.14 274.9 202.84 277.34 127.95 277.34 128.25 274.9 203.14 274.9" style="fill:#e0e0e0"></polygon><polygon points="211.69 230.67 136.8 230.67 125.95 274.9 200.84 274.9 211.69 230.67" style="fill:#f0f0f0"></polygon><polygon points="199.25 272.88 209.12 232.69 138.39 232.69 128.52 272.88 199.25 272.88" style="fill:#fafafa"></polygon><polygon points="181.32 274.9 181.02 277.34 98.55 277.34 98.86 274.9 181.32 274.9" style="fill:#f0f0f0"></polygon><path d="M381.92,280.44h-1.19c0-2.46,0-8.7-.12-23-.22-25.92-.63-27.5-.63-27.5l2.84,12C384.63,255.16,382.3,268.47,381.92,280.44Z" style="fill:#e0e0e0"></path><path d="M387.22,237.48c6.26-6.19,18.47-7,30.95-7.53,4.9-.21-13.68,9.2-23,16.25-7.23,5.47-11.65,6.76-14.05,12.67C380.89,251.2,381.83,242.81,387.22,237.48Z" style="fill:#e0e0e0"></path><path d="M380.34,224c-4.24-8.05-14.91-15.64-26.88-18.52-4.7-1.13,10.89,14.88,16.81,25.2,4.61,8,10.71,17.44,11.66,24.21C383.36,241.5,384.58,232.08,380.34,224Z" style="fill:#e0e0e0"></path><path d="M380.89,288.19h0a7.86,7.86,0,0,0,7.85-7.41l.69-7.11H372.34l.7,7.11A7.86,7.86,0,0,0,380.89,288.19Z" style="fill:#ebebeb"></path><polygon points="371.24 276.41 390.54 276.41 391.09 268.49 370.68 268.49 371.24 276.41" style="fill:#ebebeb"></polygon></g><g id="freepik--Shadow--inject-33"><ellipse cx="250" cy="416.24" rx="193.89" ry="11.32" style="fill:#f5f5f5"></ellipse></g><g id="freepik--Chart--inject-33"><rect x="96.07" y="202.35" width="48.03" height="213.71" style="fill:#407BFF"></rect><rect x="96.07" y="202.35" width="48.03" height="213.71" style="fill:#fafafa;opacity:0.7000000000000001"></rect><rect x="169.55" y="131.71" width="48.03" height="284.34" style="fill:#407BFF"></rect><rect x="169.55" y="131.71" width="48.03" height="284.34" style="opacity:0.1"></rect><rect x="243.04" y="202.35" width="48.03" height="213.71" style="fill:#407BFF"></rect><rect x="243.04" y="202.35" width="48.03" height="213.71" style="opacity:0.4"></rect><rect x="79.03" y="202.35" width="48.03" height="213.71" style="fill:#407BFF"></rect><rect x="79.03" y="202.35" width="48.03" height="213.71" style="fill:#fafafa;opacity:0.8"></rect><rect x="152.52" y="131.71" width="48.03" height="284.34" style="fill:#407BFF"></rect><rect x="152.52" y="131.71" width="48.03" height="284.34" style="fill:#fafafa;opacity:0.2"></rect><rect x="226" y="202.35" width="48.03" height="213.71" style="fill:#407BFF"></rect><rect x="226" y="202.35" width="48.03" height="213.71" style="opacity:0.2"></rect></g><g id="freepik--Character--inject-33"><path d="M453.68,318h-1A100.84,100.84,0,0,0,438,265.74l.86-.52A101.9,101.9,0,0,1,453.68,318Zm-21.24-60.44A99.63,99.63,0,0,0,423.22,247l.71-.7A99.43,99.43,0,0,1,433.24,257Z" style="fill:#407BFF"></path><path d="M453.68,318h-1A100.84,100.84,0,0,0,438,265.74l.86-.52A101.9,101.9,0,0,1,453.68,318Zm-21.24-60.44A99.63,99.63,0,0,0,423.22,247l.71-.7A99.43,99.43,0,0,1,433.24,257Z" style="opacity:0.30000000000000004"></path><path d="M421.46,248.72A98.1,98.1,0,0,0,352.15,220H338v1.05a98.14,98.14,0,0,0-34.83,12.08C256.59,260,240.38,320.45,267.25,367A98,98,0,0,0,338,415v1h14.17a98,98,0,0,0,69.31-167.33ZM352.15,390.48A72.46,72.46,0,1,1,424.6,318,72.29,72.29,0,0,1,352.15,390.48Z" style="fill:#407BFF"></path><path d="M421.46,248.72A98.1,98.1,0,0,0,352.15,220H338v1.05a98.14,98.14,0,0,0-34.83,12.08C256.59,260,240.38,320.45,267.25,367A98,98,0,0,0,338,415v1h14.17a98,98,0,0,0,69.31-167.33ZM352.15,390.48A72.46,72.46,0,1,1,424.6,318,72.29,72.29,0,0,1,352.15,390.48Z" style="opacity:0.30000000000000004"></path><path d="M410.43,318H436a98,98,0,0,1-182.92,49l22.16-12.79A72.44,72.44,0,0,0,410.43,318Z" style="fill:#407BFF"></path><path d="M410.43,318H436a98,98,0,0,1-182.92,49l22.16-12.79A72.44,72.44,0,0,0,410.43,318Z" style="fill:#fafafa;opacity:0.2"></path><path d="M338,220a98.06,98.06,0,0,1,98,98H410.43A72.47,72.47,0,0,0,338,245.57Z" style="fill:#407BFF"></path><path d="M338,220v25.57a72.43,72.43,0,0,0-62.74,108.66L253.08,367c-26.87-46.57-10.67-107,35.9-133.89A98.15,98.15,0,0,1,338,220Z" style="fill:#407BFF"></path><path d="M338,220v25.57a72.43,72.43,0,0,0-62.74,108.66L253.08,367c-26.87-46.57-10.67-107,35.9-133.89A98.15,98.15,0,0,1,338,220Z" style="fill:#fafafa;opacity:0.8"></path><polygon points="313.97 288.43 306.11 293.03 294.26 275.54 302.12 270.94 313.97 288.43" style="fill:#e4897b"></polygon><path d="M301.74,288.06l8.62-5.49a.72.72,0,0,1,.95.13l5.33,6.2a1.47,1.47,0,0,1-.36,2.15c-3,1.86-4.6,2.61-8.39,5-2.34,1.48-7,4.8-10.23,6.86s-5.42-1-4.26-2.17c5.19-5.13,6.42-8.42,7.36-11.42A2.4,2.4,0,0,1,301.74,288.06Z" style="fill:#263238"></path><path d="M297.79,291.91h-.23a1.16,1.16,0,0,1-.85-.65.62.62,0,0,1,0-.62c.6-1.09,4.62-1.47,5.08-1.51a.14.14,0,0,1,.15.09.14.14,0,0,1,0,.17C300.9,290.35,299.07,291.91,297.79,291.91Zm3.58-2.44c-1.4.16-4,.59-4.39,1.31a.32.32,0,0,0,0,.33.82.82,0,0,0,.63.48C298.38,291.72,299.77,290.93,301.37,289.47Z" style="fill:#407BFF"></path><path d="M301.29,289.46c-1.33,0-3.5-.48-3.85-1.29-.09-.21-.11-.53.33-.87a1.48,1.48,0,0,1,1.16-.32c1.45.19,2.93,2.12,3,2.2a.14.14,0,0,1,0,.15.13.13,0,0,1-.11.09A3,3,0,0,1,301.29,289.46Zm-2.58-2.19a1.17,1.17,0,0,0-.75.27c-.35.27-.27.45-.24.51.27.63,2.47,1.18,3.79,1.1a5.28,5.28,0,0,0-2.62-1.87Z" style="fill:#407BFF"></path><path d="M335.61,152.5c-.15.79-.27,1.35-.42,2l-.47,1.85c-.33,1.23-.68,2.43-1,3.63-.76,2.39-1.6,4.73-2.49,7s-1.87,4.6-2.88,6.85c-.5,1.13-1,2.24-1.58,3.35l-.41.84-.23.46c-.11.23-.23.46-.36.68a11.22,11.22,0,0,1-1.75,2.26,15.35,15.35,0,0,1-4,2.81,25.66,25.66,0,0,1-4,1.56,43.5,43.5,0,0,1-7.71,1.5,72.5,72.5,0,0,1-15,0l.08-4.7c2.28-.25,4.66-.51,7-.9s4.59-.78,6.81-1.3a41.44,41.44,0,0,0,6.3-2,11.59,11.59,0,0,0,4.44-2.8,2.4,2.4,0,0,0,.39-.63l.51-1.31c.44-1.09.85-2.19,1.26-3.29.84-2.19,1.6-4.41,2.37-6.61s1.47-4.43,2.11-6.65c.34-1.11.66-2.21,1-3.31l.43-1.65.37-1.52Z" style="fill:#e4897b"></path><path d="M329.26,140.81c-3.75,1-6.38,16.39-6.38,16.39l10.34,7s9.91-15.57,7-19.69C337.24,140.24,334.73,139.42,329.26,140.81Z" style="fill:#407BFF"></path><path d="M329.26,140.81c-3.75,1-6.38,16.39-6.38,16.39l10.34,7s9.91-15.57,7-19.69C337.24,140.24,334.73,139.42,329.26,140.81Z" style="fill:#fafafa;opacity:0.6000000000000001"></path><path d="M328.92,146.42l8,1.86.77,7.85a91,91,0,0,1-4.5,8.1L327,160C327.22,156.36,327.9,148.86,328.92,146.42Z" style="fill:#407BFF"></path><path d="M328.92,146.42l8,1.86.77,7.85a91,91,0,0,1-4.5,8.1L327,160C327.22,156.36,327.9,148.86,328.92,146.42Z" style="fill:#fafafa;opacity:0.30000000000000004"></path><path d="M294.71,182.58,288.26,176l-.85,9.22s4.84,3.27,8.19,1.51Z" style="fill:#e4897b"></path><polygon points="280.67 175.06 280.37 182.82 287.41 185.26 288.25 176.04 280.67 175.06" style="fill:#e4897b"></polygon><polygon points="278.69 290.92 272.23 284.51 284.98 267.48 291.44 273.88 278.69 290.92" style="fill:#e4897b"></polygon><path d="M275.85,280l9.32,4.22a.7.7,0,0,1,.4.86l-2.27,7.85a1.47,1.47,0,0,1-2,.88c-3.22-1.53-4.7-2.43-8.8-4.28-2.52-1.14-9.1-3.81-12.58-5.38s-2.11-5.1-.52-4.76c7.14,1.55,11.82,1.34,14.84.49A2.4,2.4,0,0,1,275.85,280Z" style="fill:#263238"></path><polygon points="294.27 275.54 300.38 284.56 308.24 279.96 302.13 270.95 294.27 275.54" style="fill:#ce6f64"></polygon><polygon points="291.44 273.88 284.97 267.48 278.4 276.26 284.87 282.67 291.44 273.88" style="fill:#ce6f64"></polygon><path d="M370.57,195.75h-37c-8.69-53.41-4.35-54.93-4.35-54.93s5.95-1.22,12.18-2c1.07-.13,2.14-.25,3.2-.35a117.48,117.48,0,0,1,16.79,0c1.06.05,2.12.13,3.16.22a112.66,112.66,0,0,1,12.53,1.85C369.93,171.43,370,180.7,370.57,195.75Z" style="fill:#407BFF"></path><path d="M370.57,195.75h-37c-8.69-53.41-4.35-54.93-4.35-54.93s5.95-1.22,12.18-2c1.07-.13,2.14-.25,3.2-.35a117.48,117.48,0,0,1,16.79,0c1.06.05,2.12.13,3.16.22a112.66,112.66,0,0,1,12.53,1.85C369.93,171.43,370,180.7,370.57,195.75Z" style="fill:#fafafa;opacity:0.6000000000000001"></path><path d="M364.59,138.7l-.4.94c-.21.52-5.36,12.62-15.34,20.7l-2.44,2-1.87-2.53c-5.61-7.6-3.93-17.48-3.1-20.95,1.07-.13,2.14-.25,3.2-.35a117.48,117.48,0,0,1,16.79,0C362.49,138.53,363.55,138.61,364.59,138.7Z" style="fill:#407BFF"></path><path d="M364.59,138.7l-.4.94c-.21.52-5.36,12.62-15.34,20.7l-2.44,2-1.87-2.53c-5.61-7.6-3.93-17.48-3.1-20.95,1.07-.13,2.14-.25,3.2-.35a117.48,117.48,0,0,1,16.79,0C362.49,138.53,363.55,138.61,364.59,138.7Z" style="fill:#fafafa;opacity:0.1"></path><path d="M342.83,92.44c-8.08-3.61-12.94,10.12-12.39,19.84s2,21.64-2.26,19.64-1.24-5-1.24-5-6,4.75.81,7.36,18.92,2.36,26-1c4.05-6.11,2.31-28.95,2.31-28.95Z" style="fill:#263238"></path><path d="M359.76,119.58c-1.05,5.4-2.11,15.3,1.67,18.9,0,0-5,11.83-14.47,19.52-5.94-8.05-2.32-19.52-2.32-19.52,6-1.44,5.87-5.91,4.82-10.1Z" style="fill:#e4897b"></path><path d="M355.56,123.17l-6.1,5.2a16.63,16.63,0,0,1,.52,3c2.3-.33,5.46-2.86,5.71-5.27A8,8,0,0,0,355.56,123.17Z" style="fill:#ce6f64"></path><path d="M360.4,105.35c1,9,1.67,12.75-2,18.1-5.52,8.06-16.77,7.38-20.47-1.1-3.33-7.63-4.48-21,3.58-26.11A12.32,12.32,0,0,1,360.4,105.35Z" style="fill:#e4897b"></path><path d="M342.51,99.17c3.23,3.79,13,14.82,19.82,13.39,7-1.47,7.24-14.5-1.2-19.89S333.84,89,342.51,99.17Z" style="fill:#263238"></path><path d="M362.74,83.35c-6.43-2.13-7,4.15-6.5,8.06l7.9,5.81a23.93,23.93,0,0,0,7.24-2.37C374.48,93.08,369.17,85.48,362.74,83.35Z" style="fill:#263238"></path><path d="M364.19,113.06a6.91,6.91,0,0,1-2.33,4.47c-1.76,1.49-3.51.17-3.76-2-.22-1.94.43-5,2.55-5.71S364.39,110.94,364.19,113.06Z" style="fill:#e4897b"></path><path d="M297.51,235c-.27,8.12,2.21,18,4.93,26.24.58,1.76,1.17,3.45,1.75,5,2.48,6.76,4.7,11.47,4.7,11.47L298,283.91s-1.48-1.86-3.66-5.13c-1-1.44-2.06-3.17-3.23-5.13-6.1-10.2-14.08-26.87-14.46-44.61-.6-27.76,56.94-33.29,56.94-33.29H360.8l-7.62,21.65S298,220.23,297.51,235Z" style="fill:#407BFF"></path><path d="M297.51,235c-.27,8.12,2.21,18,4.93,26.24.58,1.76,1.17,3.45,1.75,5,2.48,6.76,4.7,11.47,4.7,11.47L298,283.91s-1.48-1.86-3.66-5.13c-1-1.44-2.06-3.17-3.23-5.13-6.1-10.2-14.08-26.87-14.46-44.61-.6-27.76,56.94-33.29,56.94-33.29H360.8l-7.62,21.65S298,220.23,297.51,235Z" style="opacity:0.6000000000000001"></path><path d="M304.19,266.29c-1.42,2.36-5.26,8.37-9.83,12.49-1-1.44-2.06-3.17-3.23-5.13l11.31-12.38C303,263,303.61,264.72,304.19,266.29Z" style="fill:#263238"></path><path d="M313.56,212l-1.16,11.8c-8,2.52-14.24,6-14.85,10.66C296.19,224,303.47,217.86,313.56,212Z" style="fill:#263238"></path><path d="M343.37,195.74s-34.06,13.9-39.25,29.26c-6.62,19.6-24.62,47.3-24.62,47.3l7.56,9.84S307.84,262,322,238.94c17.74-29,60.48,1.63,48.62-43.2Z" style="fill:#407BFF"></path><path d="M343.37,195.74s-34.06,13.9-39.25,29.26c-6.62,19.6-24.62,47.3-24.62,47.3l7.56,9.84S307.84,262,322,238.94c17.74-29,60.48,1.63,48.62-43.2Z" style="opacity:0.6000000000000001"></path><path d="M347.38,110.24c.13.72-.15,1.38-.62,1.46s-1-.43-1.09-1.16.15-1.37.62-1.46S347.25,109.52,347.38,110.24Z" style="fill:#263238"></path><path d="M339.21,111.7c.13.72-.15,1.38-.62,1.46s-1-.43-1.09-1.15.15-1.38.62-1.47S339.08,111,339.21,111.7Z" style="fill:#263238"></path><path d="M338.34,110.55l-1.83-.19S337.65,111.55,338.34,110.55Z" style="fill:#263238"></path><path d="M341.59,112.56a19.61,19.61,0,0,1-1.75,5.07,3.17,3.17,0,0,0,2.67,0Z" style="fill:#de5753"></path><path d="M346.67,119.53a.15.15,0,0,1-.13-.09.14.14,0,0,1,.08-.18,6.09,6.09,0,0,0,3-3.23.13.13,0,0,1,.17-.08.15.15,0,0,1,.09.18,6.33,6.33,0,0,1-3.19,3.39Z" style="fill:#263238"></path><path d="M348.29,107a.28.28,0,0,1-.19-.07A3.61,3.61,0,0,0,345,106a.27.27,0,0,1-.34-.19.28.28,0,0,1,.19-.34,4.13,4.13,0,0,1,3.65,1,.28.28,0,0,1,0,.39A.27.27,0,0,1,348.29,107Z" style="fill:#263238"></path><path d="M334.75,108.45l-.1,0a.29.29,0,0,1-.15-.37,4.13,4.13,0,0,1,2.88-2.46.27.27,0,1,1,.09.54,3.6,3.6,0,0,0-2.46,2.14A.28.28,0,0,1,334.75,108.45Z" style="fill:#263238"></path><path d="M274.72,280.75h0c-1.18-.23-3.22-.77-3.67-1.81a1.17,1.17,0,0,1,.15-1.13.66.66,0,0,1,.58-.35h0c1.13,0,2.9,2.74,3.09,3.06a.14.14,0,0,1,0,.16A.17.17,0,0,1,274.72,280.75Zm-3-3a.38.38,0,0,0-.33.2.9.9,0,0,0-.12.85c.27.61,1.41,1.18,3.09,1.55-.64-.93-1.91-2.6-2.64-2.6Z" style="fill:#407BFF"></path><path d="M274.72,280.75a.16.16,0,0,1-.12-.06c-.65-.89-1.23-3.27-.67-4.06a.68.68,0,0,1,.84-.22,1,1,0,0,1,.67.6c.53,1.18-.53,3.55-.58,3.65a.16.16,0,0,1-.12.09Zm-.26-4.09a.33.33,0,0,0-.29.15c-.42.59,0,2.53.53,3.46.25-.65.84-2.29.46-3.13a.74.74,0,0,0-.49-.44A.59.59,0,0,0,274.46,276.66Z" style="fill:#407BFF"></path><path d="M346.51,109.09l-1.83-.19S345.82,110.09,346.51,109.09Z" style="fill:#263238"></path><path d="M371.13,193.58l.29,3.3c.13.26-.17.52-.6.52h-37.4c-.33,0-.61-.16-.63-.37l-.33-3.31c0-.23.27-.42.63-.42h37.43A.68.68,0,0,1,371.13,193.58Z" style="fill:#407BFF"></path><path d="M371.13,193.58l.29,3.3c.13.26-.17.52-.6.52h-37.4c-.33,0-.61-.16-.63-.37l-.33-3.31c0-.23.27-.42.63-.42h37.43A.68.68,0,0,1,371.13,193.58Z" style="fill:#fafafa;opacity:0.2"></path><path d="M366.1,197.76h1c.2,0,.35-.1.34-.23l-.47-4.3c0-.12-.19-.23-.39-.23h-1c-.2,0-.35.11-.34.23l.47,4.3C365.72,197.66,365.9,197.76,366.1,197.76Z" style="fill:#407BFF"></path><path d="M366.1,197.76h1c.2,0,.35-.1.34-.23l-.47-4.3c0-.12-.19-.23-.39-.23h-1c-.2,0-.35.11-.34.23l.47,4.3C365.72,197.66,365.9,197.76,366.1,197.76Z" style="opacity:0.6000000000000001"></path><path d="M336.24,197.76h1c.2,0,.36-.1.34-.23l-.47-4.3c0-.12-.19-.23-.39-.23h-1c-.2,0-.35.11-.34.23l.47,4.3C335.87,197.66,336,197.76,336.24,197.76Z" style="fill:#407BFF"></path><path d="M336.24,197.76h1c.2,0,.36-.1.34-.23l-.47-4.3c0-.12-.19-.23-.39-.23h-1c-.2,0-.35.11-.34.23l.47,4.3C335.87,197.66,336,197.76,336.24,197.76Z" style="opacity:0.6000000000000001"></path><path d="M351.17,197.76h1c.2,0,.35-.1.34-.23l-.47-4.3c0-.12-.19-.23-.39-.23h-1c-.2,0-.35.11-.34.23l.47,4.3C350.8,197.66,351,197.76,351.17,197.76Z" style="fill:#407BFF"></path><path d="M351.17,197.76h1c.2,0,.35-.1.34-.23l-.47-4.3c0-.12-.19-.23-.39-.23h-1c-.2,0-.35.11-.34.23l.47,4.3C350.8,197.66,351,197.76,351.17,197.76Z" style="opacity:0.6000000000000001"></path><path d="M368.43,154.88l4.77,4.06c-1,5.4-1.7,9.9-2.14,13.9C370.17,168.83,367.9,158,368.43,154.88Z" style="fill:#407BFF"></path><path d="M368.43,154.88l4.77,4.06c-1,5.4-1.7,9.9-2.14,13.9C370.17,168.83,367.9,158,368.43,154.88Z" style="fill:#fafafa;opacity:0.30000000000000004"></path><polygon points="267.37 170.2 332.25 170.2 341.65 208.5 276.78 208.5 267.37 170.2" style="fill:#fafafa"></polygon><polygon points="300.24 201.37 339.92 210.62 365.38 203.49 365.12 201.37 300.24 201.37" style="fill:#fafafa"></polygon><polygon points="265.38 170.2 330.25 170.2 339.65 208.5 274.78 208.5 265.38 170.2" style="fill:#407BFF"></polygon><polygon points="265.38 170.2 330.25 170.2 339.65 208.5 274.78 208.5 265.38 170.2" style="fill:#fafafa;opacity:0.2"></polygon><polygon points="274.78 208.5 275.04 210.62 339.92 210.62 339.65 208.5 274.78 208.5" style="fill:#407BFF"></polygon><polygon points="274.78 208.5 275.04 210.62 339.92 210.62 339.65 208.5 274.78 208.5" style="fill:#fafafa;opacity:0.2"></polygon><path d="M380.61,150.71a162.47,162.47,0,0,1,4.66,16.37c.66,2.78,1.21,5.59,1.63,8.51.21,1.46.38,2.95.47,4.51,0,.78.06,1.58,0,2.42l0,.65,0,.35-.05.48a9.75,9.75,0,0,1-.4,1.83,12.37,12.37,0,0,1-3.38,5.1,24.17,24.17,0,0,1-4,3,48.54,48.54,0,0,1-8.11,3.85c-2.73,1-5.48,1.85-8.23,2.6s-5.5,1.33-8.37,1.79l-1.13-4.57c2.51-.92,5.1-1.89,7.58-3s5-2.13,7.32-3.34a47,47,0,0,0,6.57-3.93,16.3,16.3,0,0,0,2.5-2.21,4.53,4.53,0,0,0,1.1-1.82,17.28,17.28,0,0,0-.17-2.53c-.15-1.21-.37-2.47-.61-3.75-.51-2.55-1.17-5.15-1.83-7.76s-1.45-5.22-2.23-7.82-1.58-5.24-2.36-7.78Z" style="fill:#e4897b"></path><path d="M377.12,140.55c3.71,1.12,9.38,15.66,9.38,15.66l-14.37,10.27s-6.46-12.43-4.91-17.21C368.84,144.28,372.9,139.26,377.12,140.55Z" style="fill:#407BFF"></path><path d="M377.12,140.55c3.71,1.12,9.38,15.66,9.38,15.66l-14.37,10.27s-6.46-12.43-4.91-17.21C368.84,144.28,372.9,139.26,377.12,140.55Z" style="fill:#fafafa;opacity:0.6000000000000001"></path><path d="M355.59,197.93,347,195.74l4.11,8.3s5.84.25,7.77-3Z" style="fill:#e4897b"></path><polygon points="339.99 198.9 343.8 205.65 351.07 204.04 346.96 195.75 339.99 198.9" style="fill:#e4897b"></polygon></g></svg>